<?xml version="1.0" encoding="utf-8"?>
<!-- Generator: Adobe Illustrator 22.0.0, SVG Export Plug-In . SVG Version: 6.00 Build 0)  -->
<svg version="1.1" id="Layer_1" xmlns="http://www.w3.org/2000/svg" xmlns:xlink="http://www.w3.org/1999/xlink" x="0px" y="0px"
	 viewBox="0 0 1917.4 1237.1" style="enable-background:new 0 0 1917.4 1237.1;" xml:space="preserve">
<path d="M248.3,1158.2c0,26.7,0,51.9,0,78.9c-33.5,0-65,0-99,0c0-25.8,0-51.7,0-80.4c-25.4,0-48.3,0.1-71.1,0
	c-49-0.3-78-28.5-78.1-76.9C0,745.1,0,410.5,0.1,75.9c0-46.2,28.3-74.7,74.4-75.5c36.7-0.7,73.5-0.2,110.2-0.2
	c543.9,0,1087.7,0,1631.6,0c8.8,0,17.6-0.1,26.4,0.1c46.2,1.3,74.6,29.3,74.6,75.4c0.2,335.4,0.2,670.8,0,1006.3
	c0,45.2-30,74.2-75.6,74.7c-23.1,0.3-46.2,0-73,0c0,14.3,0,27.5,0,40.7c0,12.7,0,25.3,0,39.8c-33,0-64.5,0-98.8,0
	c0-25.7,0-51.6,0-78.9C1195.4,1158.2,723.8,1158.2,248.3,1158.2z M1568.8,84.3c-474.1,0-946.5,0-1418.6,0c0,330.6,0,659.3,0,989
	c473.3,0,945.1,0,1418.6,0C1568.8,743.6,1568.8,414.8,1568.8,84.3z M1850.6,878c0.8-63.1-48.1-113.8-110.4-114.5
	c-62.8-0.8-113.8,48.2-114.9,110.4c-1.1,61.8,49.2,113.9,110.8,114.8C1798.6,989.6,1849.9,940,1850.6,878z M1850.6,580.2
	c0.6-63.2-48.3-113.5-110.7-114.1c-63.1-0.6-113.6,48.3-114.6,110.6c-0.9,61.8,49.4,113.8,111.1,114.6
	C1798.7,692.2,1850,642.2,1850.6,580.2z M1850.6,281.2c0-62.9-49.4-112.4-112.3-112.4c-62.8,0-112.9,49.6-113.1,112
	c-0.1,61.6,51.1,113.1,112.7,113.2C1799.9,394.1,1850.6,343.4,1850.6,281.2z"/>
<path d="M1536.3,117.5c0,54.1,0,107.1,0,161.6c-451.3,0-901.3,0-1352.8,0c0-53.6,0-106.7,0-161.6
	C634,117.5,1084.5,117.5,1536.3,117.5z"/>
<path d="M1536.4,870.3c0,58,0,112.9,0,169.3c-451,0-900.9,0-1352.6,0c0-55.3,0-110.7,0-168.7c4.8,8.9,8.3,16.8,13,23.9
	c21.5,32.8,51.9,47,91.1,46.9c235.5-0.5,471-0.2,706.5-0.2c139.7,0,279.4,0,419.1,0C1483.4,941.4,1499.9,932.1,1536.4,870.3z"/>
</svg>
