<?xml version="1.0" encoding="utf-8"?>
<!-- Generator: Adobe Illustrator 25.0.0, SVG Export Plug-In . SVG Version: 6.00 Build 0)  -->
<svg version="1.1" id="Layer_1" xmlns="http://www.w3.org/2000/svg" xmlns:xlink="http://www.w3.org/1999/xlink" x="0px" y="0px"
	 viewBox="0 0 256 193" style="enable-background:new 0 0 256 193;" xml:space="preserve">
<style type="text/css">
	.st0{fill:#F58220;}
</style>
<g>
	<path class="st0" d="M192.4,144.6h31.8V68.3l-35.8-35.8L165.9,55l26.5,26.5V144.6L192.4,144.6z M224.3,160.6H178h-64.6L87,134.1
		l11.2-11.2l21.9,21.9h45l-44.4-44.4L132.1,89l44.4,44.4v-45l-21.8-21.8l11.2-11.2L110.7,0H56.3l0,0H0l31.7,31.7v0.1h0.2h65.6
		L120.7,55l-34,34L63.5,65.7v-18H31.7v31.2l55,55l-22.4,22.4l35.8,35.8h54.3H256l0,0L224.3,160.6L224.3,160.6z"/>
</g>
</svg>
